<?xml version="1.0" encoding="utf-8"?>
<!-- Generator: Adobe Illustrator 26.1.0, SVG Export Plug-In . SVG Version: 6.00 Build 0)  -->
<svg version="1.1" id="Warstwa_1" xmlns="http://www.w3.org/2000/svg" xmlns:xlink="http://www.w3.org/1999/xlink" x="0px" y="0px"
	 viewBox="0 0 1115 135" style="enable-background:new 0 0 1115 135;" xml:space="preserve">
<style type="text/css">
	.st0{fill:#1DBAFF;}
</style>
<g>
	<path d="M54.9,16.7c8.8,0,16.6,1.3,23.4,4c12.6,4.7,22.5,14.7,27.1,27.3c2.3,6.3,3.5,12.9,3.4,19.5c0.1,8.9-2,17.6-6.1,25.5
		c-4.1,7.7-10.4,14.1-18.1,18.4c-8,4.6-17.9,7-29.7,7h-45c-1.3,0-2.4-1-2.4-2.4c0,0,0,0,0,0V19c0-1.3,1.1-2.4,2.4-2.4l0,0H54.9z
		 M54.1,103.2c8.9,0,16.2-1.6,21.8-4.8c5.3-2.9,9.6-7.5,12.3-12.9c2.7-5.6,4-11.8,3.9-18c0.1-6.1-1.3-12.2-3.9-17.7
		c-2.7-5.5-7-10-12.3-13.1c-5.6-3.3-12.8-4.9-21.8-4.9H25.6c-1.3,0-2.4,1.1-2.4,2.4c0,0,0,0,0,0v66.7c0,1.3,1.1,2.4,2.4,2.4
		c0,0,0,0,0,0L54.1,103.2z"/>
	<path d="M231.9,48.3c0.1,6.7-2.2,13.2-6.3,18.5c-3.5,4.6-8.1,8.3-13.4,10.6c-1.2,0.5-1.7,1.9-1.2,3.1c0.1,0.1,0.1,0.3,0.2,0.4
		l23.4,33.8c0.7,1.1,0.5,2.5-0.6,3.3c-0.4,0.3-0.9,0.4-1.4,0.4l-13.8-0.1c-0.8,0-1.5-0.4-1.9-1l-24.5-35.7c-0.4-0.6-1.2-1-2-1h-27
		c-1.3,0-2.4,1.1-2.4,2.4l0,0v33c0,1.3-1,2.4-2.4,2.4c0,0,0,0,0,0h-11c-1.3,0-2.4-1-2.4-2.4c0,0,0,0,0,0V19c0-1.3,1.1-2.4,2.4-2.4
		l0,0h51.4c5.6,0,11.1,1.4,16,4.1c4.9,2.7,9.1,6.5,12.1,11.2C230.4,36.8,232,42.5,231.9,48.3z M195.3,31.8h-31.9
		c-1.3,0-2.4,1.1-2.4,2.4l0,0v28.9c0,1.3,1.1,2.4,2.4,2.4l0,0h33.3c3.3,0.1,6.6-0.8,9.5-2.4c2.7-1.5,5-3.7,6.6-6.3
		c1.6-2.5,2.4-5.4,2.4-8.4c0-3.1-0.9-6.1-2.7-8.6c-1.9-2.6-4.4-4.6-7.3-5.9C202.2,32.5,198.7,31.8,195.3,31.8L195.3,31.8z"/>
	<path d="M475.8,16.7c5.6-0.1,11.1,1.4,16,4.1c4.7,2.7,8.7,6.6,11.6,11.2c3,4.8,4.5,10.3,4.4,15.9c0.1,5.8-1.6,11.5-4.7,16.4
		c-3.1,4.9-7.3,8.9-12.4,11.7c-5.2,2.9-11,4.3-16.9,4.3h-33c-1.3,0-2.4,1-2.4,2.4c0,0,0,0,0,0V116c0,1.3-1.1,2.4-2.4,2.4
		c0,0,0,0,0,0h-11c-1.3,0-2.4-1.1-2.4-2.4l0,0V19c0-1.3,1.1-2.4,2.4-2.4H475.8z M472.9,65.2c3.2,0,6.4-0.8,9.2-2.3
		c2.7-1.5,5-3.6,6.7-6.2c1.7-2.6,2.5-5.6,2.5-8.7c0-2.9-0.8-5.7-2.5-8.1c-1.7-2.5-4-4.5-6.7-5.8c-2.8-1.5-6-2.2-9.2-2.2h-32
		c-1.3,0-2.4,1.1-2.4,2.4v28.6c0,1.3,1.1,2.4,2.4,2.4c0,0,0,0,0,0L472.9,65.2z"/>
	<path d="M545.7,89.4c0.8-1,2.3-1.2,3.3-0.4c0.1,0.1,0.2,0.1,0.3,0.2c4.2,4.5,9,8.4,14.4,11.6c5.6,3.2,12.6,4.9,20.8,4.9
		c4.3,0,8.6-0.6,12.7-1.7c3.7-1,7.1-2.7,10.1-5.2c2.6-2.1,4-5.3,3.9-8.6c0-4.8-2.6-8.3-7.9-10.3c-5.3-2-12.7-3.7-22.2-5.1
		c-11.9-1.7-21.3-4.9-28.2-9.6c-6.9-4.6-10.4-11.5-10.4-20.5c-0.1-5.8,1.9-11.4,5.6-15.8c3.7-4.4,8.8-7.8,15.1-10.2
		c6.7-2.4,13.8-3.6,21-3.6c9.5,0,17.7,1.6,24.6,4.7c6,2.6,11.2,6.6,15.3,11.6c0.7,0.9,0.6,2.2-0.2,3l-7.5,7.9
		c-0.9,0.9-2.4,1-3.3,0.1c-0.1,0-0.1-0.1-0.1-0.2c-3.2-3.6-7-6.6-11.2-8.9c-5.2-2.8-11.1-4.2-17.9-4.2c-7,0-12.8,1.2-17.6,3.7
		c-4.7,2.5-7.1,5.9-7.1,10.3c0,3.5,1.1,6.3,3.4,8.4c2.3,2.1,5.5,3.7,9.6,4.9c4.8,1.3,9.6,2.3,14.5,3c5.3,0.8,10.5,1.8,15.4,3
		c4.6,1.1,9,2.7,13.2,4.9c3.7,1.9,6.8,4.6,9.3,7.9c2.3,3.2,3.4,7.2,3.4,11.9c0,6.6-1.8,12.3-5.4,17.1c-3.6,4.8-8.7,8.6-15.3,11.3
		c-6.6,2.7-14.4,4-23.3,4c-9.6,0-18.3-1.5-26.1-4.6c-7.4-3-13.9-7.7-19.1-13.6c-0.7-0.9-0.8-2.1-0.1-3L545.7,89.4z"/>
	<path d="M753.7,20.5l-41.5,56c-0.3,0.4-0.5,0.9-0.5,1.4V116c0,1.3-1.1,2.4-2.4,2.4h-11c-1.3,0-2.4-1.1-2.4-2.4V78.6
		c0-0.5-0.2-1-0.5-1.4l-44.2-56.7c-0.8-1-0.6-2.5,0.4-3.3c0.4-0.3,0.9-0.5,1.5-0.5h14.8c0.7,0,1.5,0.4,1.9,0.9l32.3,43.1
		c0.8,1,2.3,1.3,3.3,0.5c0.2-0.1,0.4-0.3,0.5-0.5l30.8-43c0.4-0.6,1.2-1,1.9-1h13c1.3,0,2.4,1.1,2.4,2.4
		C754.2,19.6,754,20.1,753.7,20.5z"/>
	<path class="st0" d="M351.8,12.6V7.8c0-2.9-2.4-5.3-5.3-5.3h-6c-2.9,0-5.3,2.4-5.3,5.3v4.8l-19,0V7.8c0-2.9-2.4-5.3-5.3-5.3h-6
		c-2.9,0-5.3,2.4-5.3,5.3v4.7c-16.5,0.5-29.9,15.2-29.9,33v53.9c0,18.2,13.9,33,30.8,33h50.4c17,0,30.8-14.9,30.8-33V45.5
		C381.7,27.7,368.3,13.1,351.8,12.6z M283.3,45.5c0-10.1,7.7-18.4,17.2-18.4h4l46.8,0.1c9.2,0.3,16.7,8.4,16.7,18.3v5
		c0,1.3-1.1,2.4-2.4,2.4h-79.8c-1.3,0-2.4-1.1-2.4-2.4V45.5z M368,99.5c0,10.1-7.7,18.4-17.2,18.4h-50.4c-9.5,0-17.2-8.2-17.2-18.4
		V70.3c0-1.5,1.2-2.7,2.7-2.7c0,0,0,0,0,0h79.3c1.5,0,2.7,1.2,2.7,2.7L368,99.5z"/>
	<path class="st0" d="M809.3,79.7c0.4-0.6,1.3-0.7,1.8-0.2c0,0,0.1,0.1,0.1,0.1c2.3,2.5,5,4.7,8,6.5c3.1,1.8,7,2.7,11.6,2.7
		c2.4,0,4.8-0.3,7.1-1c2.1-0.5,4-1.5,5.6-2.9c1.4-1.2,2.2-3,2.2-4.8c0-2.7-1.5-4.6-4.4-5.8c-3-1.1-7.1-2.1-12.4-2.8
		c-6.6-1-11.9-2.8-15.7-5.3c-3.9-2.6-5.8-6.4-5.8-11.4c-0.1-3.2,1-6.3,3.1-8.8c2.3-2.6,5.2-4.5,8.4-5.7c3.7-1.4,7.7-2,11.7-2
		c5.3,0,9.9,0.9,13.7,2.6c3.3,1.4,6.2,3.7,8.5,6.5c0.4,0.5,0.4,1.2-0.1,1.7l-4.2,4.4c-0.5,0.5-1.3,0.6-1.8,0.1c0,0-0.1-0.1-0.1-0.1
		c-1.8-2-3.9-3.7-6.2-5c-3.1-1.6-6.5-2.4-10-2.3c-3.9,0-7.2,0.7-9.8,2c-2.6,1.4-3.9,3.3-3.9,5.8c-0.1,1.8,0.6,3.5,1.9,4.7
		c1.6,1.3,3.4,2.2,5.4,2.7c2.7,0.8,5.4,1.3,8.1,1.7c3,0.5,5.8,1,8.6,1.7c2.6,0.6,5,1.5,7.4,2.7c2,1.1,3.8,2.6,5.2,4.4
		c1.3,2,2,4.3,1.9,6.6c0.1,3.4-1,6.8-3,9.5c-2.2,2.8-5.2,5-8.5,6.3c-4.1,1.6-8.6,2.3-13,2.2c-5,0.1-9.9-0.8-14.6-2.6
		c-4.1-1.7-7.8-4.3-10.7-7.6c-0.4-0.5-0.4-1.2,0-1.7L809.3,79.7z"/>
	<path class="st0" d="M915.8,47.3h-15.6c-0.8,0-1.5,0.7-1.5,1.5v45c0,0.8-0.7,1.5-1.5,1.5h-5.9c-0.8,0-1.5-0.7-1.5-1.5v-45
		c0-0.8-0.7-1.5-1.5-1.5h-15.7c-0.8,0-1.5-0.7-1.5-1.5V41c0-0.8,0.7-1.5,1.5-1.5h43.2c0.8,0,1.5,0.7,1.5,1.5v4.8
		C917.3,46.6,916.7,47.3,915.8,47.3C915.8,47.3,915.8,47.3,915.8,47.3z"/>
	<path class="st0" d="M957.3,95.7c-3.8,0.1-7.5-0.8-10.9-2.4c-3.2-1.5-6.1-3.7-8.5-6.4c-2.4-2.7-4.2-5.7-5.5-9.1
		c-1.3-3.3-1.9-6.9-1.9-10.5c0-3.7,0.7-7.3,2.1-10.7c1.3-3.3,3.2-6.4,5.6-9c2.4-2.6,5.3-4.7,8.5-6.2c3.4-1.6,7-2.4,10.8-2.3
		c3.8-0.1,7.5,0.8,10.9,2.5c3.2,1.6,6.1,3.8,8.4,6.5c2.4,2.7,4.2,5.7,5.5,9.1c2.6,6.8,2.6,14.3-0.1,21c-1.3,3.3-3.2,6.4-5.6,9
		c-2.4,2.6-5.3,4.7-8.6,6.2C964.7,95,961,95.7,957.3,95.7z M939.5,67.4c0,2.6,0.4,5.2,1.3,7.6c0.8,2.4,2,4.6,3.6,6.5
		c1.5,1.9,3.5,3.4,5.6,4.5c2.3,1.1,4.8,1.7,7.4,1.7c2.6,0.1,5.2-0.6,7.5-1.8c2.2-1.2,4-2.8,5.6-4.7c1.5-2,2.7-4.2,3.5-6.5
		c0.8-2.4,1.2-4.9,1.2-7.4c0-2.6-0.4-5.2-1.3-7.7c-0.8-2.3-2-4.5-3.6-6.4c-1.5-1.9-3.5-3.4-5.6-4.5c-4.7-2.3-10.2-2.3-14.9,0.1
		c-2.2,1.1-4.1,2.7-5.6,4.6c-1.6,1.9-2.7,4.1-3.5,6.5C939.9,62.4,939.5,64.9,939.5,67.4L939.5,67.4z"/>
	<path class="st0" d="M1107.5,89v4.8c0,0.8-0.7,1.5-1.5,1.5l0,0h-35.4c-0.8,0-1.5-0.7-1.5-1.5V41c0-0.8,0.7-1.5,1.5-1.5h34.7
		c0.8,0,1.5,0.7,1.5,1.5v4.8c0,0.8-0.7,1.5-1.5,1.5h-25.9c-0.8,0-1.5,0.7-1.5,1.5v12.9c0,0.8,0.7,1.5,1.5,1.5h22
		c0.8,0,1.5,0.7,1.5,1.5V69c0,0.8-0.7,1.5-1.5,1.5h-22c-0.8,0-1.5,0.7-1.5,1.5V86c0,0.8,0.7,1.5,1.5,1.5c0,0,0,0,0,0h26.6
		C1106.8,87.5,1107.5,88.2,1107.5,89C1107.5,89,1107.5,89,1107.5,89z"/>
	<path class="st0" d="M1049.4,56.8c0,3.7-1.2,7.4-3.5,10.3c-2,2.6-4.5,4.6-7.5,5.9c-0.7,0.3-1,1.1-0.7,1.7c0,0.1,0.1,0.2,0.1,0.2
		l13.1,18.8c0.4,0.6,0.2,1.4-0.4,1.8c-0.2,0.1-0.5,0.2-0.7,0.2l-7.7-0.1c-0.4,0-0.8-0.2-1.1-0.6l-13.7-19.9
		c-0.2-0.4-0.7-0.6-1.1-0.6h-15.1c-0.7,0-1.3,0.6-1.3,1.3c0,0,0,0,0,0v18.4c0,0.7-0.6,1.3-1.3,1.3l0,0h-6.2c-0.7,0-1.3-0.6-1.3-1.3
		v-54c0-0.7,0.6-1.3,1.3-1.3c0,0,0,0,0,0h28.7c3.1,0,6.2,0.8,9,2.3c2.7,1.5,5.1,3.6,6.8,6.2C1048.6,50.4,1049.5,53.6,1049.4,56.8z
		 M1029,47.6h-17.8c-0.7,0-1.3,0.6-1.3,1.3c0,0,0,0,0,0V65c0,0.7,0.6,1.3,1.3,1.3c0,0,0,0,0,0h18.6c1.9,0,3.7-0.5,5.3-1.4
		c1.5-0.8,2.8-2.1,3.7-3.5c0.9-1.4,1.4-3,1.4-4.7c0-1.7-0.5-3.4-1.5-4.8c-1-1.4-2.4-2.6-4.1-3.3C1032.8,47.9,1030.9,47.5,1029,47.6z
		"/>
</g>
</svg>
